solid OpenSCAD_Model
  facet normal -1 0 0
    outer loop
      vertex 0 -28.1075 -9.72272
      vertex 0 -35.0018 -16.617
      vertex 0 -31.643 -6.18718
    endloop
  endfacet
  facet normal -1 0 0
    outer loop
      vertex 0 -28.1075 -2.65165
      vertex 0 -23.3345 7.77817
      vertex 0 -18.3027 2.74635
    endloop
  endfacet
  facet normal -1 0 0
    outer loop
      vertex 0 -18.3027 2.74635
      vertex 0 -18.3531 2.91128
      vertex 0 -1 8.21666
    endloop
  endfacet
  facet normal -1 0 0
    outer loop
      vertex 0 -1 8.21666
      vertex 0 -1 8.3
      vertex 0 -0.727398 8.3
    endloop
  endfacet
  facet normal -1 0 0
    outer loop
      vertex 0 1 7.3
      vertex 0 -0.446181 8.3
      vertex 0 14.3 8.3
    endloop
  endfacet
  facet normal -1 0 0
    outer loop
      vertex 0 13.3 -7
      vertex 0 14.3 8.3
      vertex 0 14.3 -8
    endloop
  endfacet
  facet normal -1 0 0
    outer loop
      vertex 0 -17.2178 1.167
      vertex 0 -1 8.21666
      vertex 0 -0.727398 8.3
    endloop
  endfacet
  facet normal -1 0 0
    outer loop
      vertex 0 -18.3027 2.74635
      vertex 0 -1 8.21666
      vertex 0 -17.2178 1.167
    endloop
  endfacet
  facet normal -1 0 0
    outer loop
      vertex 0 -28.1075 -2.65165
      vertex 0 -18.3027 2.74635
      vertex 0 -24.572 -6.18718
    endloop
  endfacet
  facet normal -1 0 0
    outer loop
      vertex 0 -17.2178 1.167
      vertex 0 -24.572 -6.18718
      vertex 0 -18.3027 2.74635
    endloop
  endfacet
  facet normal -1 0 0
    outer loop
      vertex 0 -31.643 -6.18718
      vertex 0 -23.3345 7.77817
      vertex 0 -28.1075 -2.65165
    endloop
  endfacet
  facet normal -1 0 0
    outer loop
      vertex 0 -41.3657 -10.253
      vertex 0 -23.3345 7.77817
      vertex 0 -31.643 -6.18718
    endloop
  endfacet
  facet normal -1 0 0
    outer loop
      vertex 0 -41.3657 -10.253
      vertex 0 -31.643 -6.18718
      vertex 0 -35.0018 -16.617
    endloop
  endfacet
  facet normal -1 0 0
    outer loop
      vertex 0 1 7.3
      vertex 0 14.3 8.3
      vertex 0 13.3 7.3
    endloop
  endfacet
  facet normal -1 0 0
    outer loop
      vertex 0 -1 6.12527
      vertex 0 -0.446181 8.3
      vertex 0 1 7.3
    endloop
  endfacet
  facet normal -1 0 0
    outer loop
      vertex 0 1 -7
      vertex 0 -1 -8
      vertex 0 -1 6.12527
    endloop
  endfacet
  facet normal -1 0 0
    outer loop
      vertex 0 13.3 7.3
      vertex 0 14.3 8.3
      vertex 0 13.3 -7
    endloop
  endfacet
  facet normal -1 0 0
    outer loop
      vertex 0 -1 -8
      vertex 0 1 -7
      vertex 0 14.3 -8
    endloop
  endfacet
  facet normal -1 0 0
    outer loop
      vertex 0 1 -7
      vertex 0 13.3 -7
      vertex 0 14.3 -8
    endloop
  endfacet
  facet normal -1 0 0
    outer loop
      vertex 0 -17.2178 1.167
      vertex 0 -0.727398 8.3
      vertex 0 -0.47022 8.37863
    endloop
  endfacet
  facet normal -1 0 0
    outer loop
      vertex 0 -17.2178 1.167
      vertex 0 -0.47022 8.37863
      vertex 0 -0.446181 8.3
    endloop
  endfacet
  facet normal -1 0 0
    outer loop
      vertex 0 1 -7
      vertex 0 -1 6.12527
      vertex 0 1 7.3
    endloop
  endfacet
  facet normal -1 0 0
    outer loop
      vertex 0 -17.2178 1.167
      vertex 0 -0.446181 8.3
      vertex 0 -1 6.12527
    endloop
  endfacet
  facet normal 0 -0.707107 0.707107
    outer loop
      vertex 2.75 -39.4212 -8.3085
      vertex 0 -41.3657 -10.253
      vertex 25.5 -41.3657 -10.253
    endloop
  endfacet
  facet normal 0 -0.707107 0.707107
    outer loop
      vertex 2.75 -25.2791 5.83363
      vertex 0 -23.3345 7.77817
      vertex 2.75 -39.4212 -8.3085
    endloop
  endfacet
  facet normal 0 -0.707107 0.707107
    outer loop
      vertex 22.75 -39.4212 -8.3085
      vertex 2.75 -39.4212 -8.3085
      vertex 25.5 -41.3657 -10.253
    endloop
  endfacet
  facet normal 0 -0.707107 0.707107
    outer loop
      vertex 0 -23.3345 7.77817
      vertex 0 -41.3657 -10.253
      vertex 2.75 -39.4212 -8.3085
    endloop
  endfacet
  facet normal 0 -0.707107 0.707107
    outer loop
      vertex 25.5 -23.3345 7.77817
      vertex 0 -23.3345 7.77817
      vertex 2.75 -25.2791 5.83363
    endloop
  endfacet
  facet normal 0 -0.707107 0.707107
    outer loop
      vertex 25.5 -23.3345 7.77817
      vertex 22.75 -25.2791 5.83363
      vertex 25.5 -41.3657 -10.253
    endloop
  endfacet
  facet normal 0 -0.707107 0.707107
    outer loop
      vertex 25.5 -23.3345 7.77817
      vertex 2.75 -25.2791 5.83363
      vertex 22.75 -25.2791 5.83363
    endloop
  endfacet
  facet normal 0 -0.707107 0.707107
    outer loop
      vertex 22.75 -25.2791 5.83363
      vertex 22.75 -39.4212 -8.3085
      vertex 25.5 -41.3657 -10.253
    endloop
  endfacet
  facet normal 0 -0.707107 -0.707107
    outer loop
      vertex 0 -41.3657 -10.253
      vertex 0 -35.0018 -16.617
      vertex 25.5 -41.3657 -10.253
    endloop
  endfacet
  facet normal 0 -0.707107 -0.707107
    outer loop
      vertex 25.5 -41.3657 -10.253
      vertex 0 -35.0018 -16.617
      vertex 25.5 -35.0018 -16.617
    endloop
  endfacet
  facet normal 0 0.707107 -0.707107
    outer loop
      vertex 24.5 -34.2947 -15.9099
      vertex 25.5 -35.0018 -16.617
      vertex 1 -34.2947 -15.9099
    endloop
  endfacet
  facet normal 0 0.707107 -0.707107
    outer loop
      vertex 0 -35.0018 -16.617
      vertex 0 -28.1075 -9.72272
      vertex 1 -34.2947 -15.9099
    endloop
  endfacet
  facet normal 0 0.707107 -0.707107
    outer loop
      vertex 0 -35.0018 -16.617
      vertex 1 -34.2947 -15.9099
      vertex 25.5 -35.0018 -16.617
    endloop
  endfacet
  facet normal 0 0.707107 -0.707107
    outer loop
      vertex 0 -24.572 -6.18718
      vertex 1 -17.6777 0.707107
      vertex 1 -24.572 -6.18718
    endloop
  endfacet
  facet normal 0 0.707107 -0.707107
    outer loop
      vertex 25.5 -35.0018 -16.617
      vertex 24.5 -34.2947 -15.9099
      vertex 24.5 -17.6777 0.707107
    endloop
  endfacet
  facet normal 0 0.707107 -0.707107
    outer loop
      vertex 1 -17.6777 0.707107
      vertex 0 -24.572 -6.18718
      vertex 0 -17.2178 1.167
    endloop
  endfacet
  facet normal 0 0.707107 -0.707107
    outer loop
      vertex 1 -17.6777 0.707107
      vertex 0 -17.2178 1.167
      vertex 24.5 -17.6777 0.707107
    endloop
  endfacet
  facet normal 0 0.707107 -0.707107
    outer loop
      vertex 24.5 -17.6777 0.707107
      vertex 0 -17.2178 1.167
      vertex 7.3 -17.2178 1.167
    endloop
  endfacet
  facet normal 0 0.707107 -0.707107
    outer loop
      vertex 24.5 -17.6777 0.707107
      vertex 7.3 -17.2178 1.167
      vertex 7.3 -16.9706 1.41421
    endloop
  endfacet
  facet normal 0 0.707107 -0.707107
    outer loop
      vertex 24.5 -17.6777 0.707107
      vertex 7.3 -16.9706 1.41421
      vertex 25.5 -16.9706 1.41421
    endloop
  endfacet
  facet normal 0 0.707107 -0.707107
    outer loop
      vertex 24.5 -17.6777 0.707107
      vertex 25.5 -16.9706 1.41421
      vertex 25.5 -35.0018 -16.617
    endloop
  endfacet
  facet normal 0 0.707107 -0.707107
    outer loop
      vertex 1 -34.2947 -15.9099
      vertex 0 -28.1075 -9.72272
      vertex 1 -28.1075 -9.72272
    endloop
  endfacet
  facet normal 0 0.707107 0.707107
    outer loop
      vertex 1 -31.643 -6.18718
      vertex 1 -28.1075 -9.72272
      vertex 0 -28.1075 -9.72272
    endloop
  endfacet
  facet normal 0 0.707107 0.707107
    outer loop
      vertex 0 -31.643 -6.18718
      vertex 1 -31.643 -6.18718
      vertex 0 -28.1075 -9.72272
    endloop
  endfacet
  facet normal 0 0.707107 -0.707107
    outer loop
      vertex 1 -28.1075 -2.65165
      vertex 1 -31.643 -6.18718
      vertex 0 -28.1075 -2.65165
    endloop
  endfacet
  facet normal 0 0.707107 -0.707107
    outer loop
      vertex 0 -28.1075 -2.65165
      vertex 1 -31.643 -6.18718
      vertex 0 -31.643 -6.18718
    endloop
  endfacet
  facet normal 0 -0.707107 -0.707107
    outer loop
      vertex 1 -24.572 -6.18718
      vertex 1 -28.1075 -2.65165
      vertex 0 -24.572 -6.18718
    endloop
  endfacet
  facet normal 0 -0.707107 -0.707107
    outer loop
      vertex 0 -24.572 -6.18718
      vertex 1 -28.1075 -2.65165
      vertex 0 -28.1075 -2.65165
    endloop
  endfacet
  facet normal 0 0.292372 -0.956305
    outer loop
      vertex 0 -17.2178 1.167
      vertex 0 -1 6.12527
      vertex 7.3 -17.2178 1.167
    endloop
  endfacet
  facet normal 0 0.292372 -0.956305
    outer loop
      vertex 7.3 -17.2178 1.167
      vertex 0 -1 6.12527
      vertex 7.3 -1 6.12527
    endloop
  endfacet
  facet normal 0 -1 0
    outer loop
      vertex 0 -1 6.12527
      vertex 0 -1 -8
      vertex 7.3 -1 -8
    endloop
  endfacet
  facet normal 0 -1 0
    outer loop
      vertex 7.3 -1 6.12527
      vertex 0 -1 6.12527
      vertex 7.3 -1 -8
    endloop
  endfacet
  facet normal 0 0 -1
    outer loop
      vertex 0 -1 -8
      vertex 0 14.3 -8
      vertex 7.3 -1 -8
    endloop
  endfacet
  facet normal 0 0 -1
    outer loop
      vertex 7.3 -1 -8
      vertex 0 14.3 -8
      vertex 7.3 14.3 -8
    endloop
  endfacet
  facet normal 0 1 0
    outer loop
      vertex 0 14.3 -8
      vertex 0 14.3 8.3
      vertex 7.3 14.3 -8
    endloop
  endfacet
  facet normal 0 1 0
    outer loop
      vertex 7.3 14.3 -8
      vertex 0 14.3 8.3
      vertex 7.3 14.3 8.3
    endloop
  endfacet
  facet normal 0 0 1
    outer loop
      vertex 0 14.3 8.3
      vertex 0 -0.446181 8.3
      vertex 7.3 -0.446181 8.3
    endloop
  endfacet
  facet normal 0 0 1
    outer loop
      vertex 7.3 14.3 8.3
      vertex 0 14.3 8.3
      vertex 7.3 -0.446181 8.3
    endloop
  endfacet
  facet normal 0 0.956305 0.292372
    outer loop
      vertex 0 -0.47022 8.37863
      vertex 7.3 -0.47022 8.37863
      vertex 0 -0.446181 8.3
    endloop
  endfacet
  facet normal 0 0.956305 0.292372
    outer loop
      vertex 0 -0.446181 8.3
      vertex 7.3 -0.47022 8.37863
      vertex 7.3 -0.446181 8.3
    endloop
  endfacet
  facet normal 0 -0.292372 0.956305
    outer loop
      vertex 0 -0.47022 8.37863
      vertex 0 -0.727398 8.3
      vertex 7.3 -0.727398 8.3
    endloop
  endfacet
  facet normal 0 -0.292372 0.956305
    outer loop
      vertex 7.3 -0.47022 8.37863
      vertex 0 -0.47022 8.37863
      vertex 7.3 -0.727398 8.3
    endloop
  endfacet
  facet normal 0 0 1
    outer loop
      vertex 0 -0.727398 8.3
      vertex 0 -1 8.3
      vertex 7.3 -1 8.3
    endloop
  endfacet
  facet normal 0 0 1
    outer loop
      vertex 7.3 -0.727398 8.3
      vertex 0 -0.727398 8.3
      vertex 7.3 -1 8.3
    endloop
  endfacet
  facet normal 0 -1 0
    outer loop
      vertex 0 -1 8.3
      vertex 0 -1 8.21666
      vertex 7.3 -1 8.21666
    endloop
  endfacet
  facet normal 0 -1 0
    outer loop
      vertex 7.3 -1 8.3
      vertex 0 -1 8.3
      vertex 7.3 -1 8.21666
    endloop
  endfacet
  facet normal 0 -0.292372 0.956305
    outer loop
      vertex 0 -1 8.21666
      vertex 0 -18.3531 2.91128
      vertex 7.3 -18.3531 2.91128
    endloop
  endfacet
  facet normal 0 -0.292372 0.956305
    outer loop
      vertex 7.3 -1 8.21666
      vertex 0 -1 8.21666
      vertex 7.3 -18.3531 2.91128
    endloop
  endfacet
  facet normal 0 -0.956305 -0.292372
    outer loop
      vertex 7.3 -18.3531 2.91128
      vertex 0 -18.3531 2.91128
      vertex 0 -18.3027 2.74635
    endloop
  endfacet
  facet normal 0 -0.956305 -0.292372
    outer loop
      vertex 7.3 -18.3027 2.74635
      vertex 7.3 -18.3531 2.91128
      vertex 0 -18.3027 2.74635
    endloop
  endfacet
  facet normal 0 0.707107 0.707107
    outer loop
      vertex 0 -18.3027 2.74635
      vertex 0 -23.3345 7.77817
      vertex 25.5 -23.3345 7.77817
    endloop
  endfacet
  facet normal 0 0.707107 0.707107
    outer loop
      vertex 7.3 -18.3027 2.74635
      vertex 0 -18.3027 2.74635
      vertex 25.5 -23.3345 7.77817
    endloop
  endfacet
  facet normal 0 0.707107 0.707107
    outer loop
      vertex 25.5 -16.9706 1.41421
      vertex 7.3 -18.3027 2.74635
      vertex 25.5 -23.3345 7.77817
    endloop
  endfacet
  facet normal 0 0.707107 0.707107
    outer loop
      vertex 7.3 -16.9706 1.41421
      vertex 7.3 -18.3027 2.74635
      vertex 25.5 -16.9706 1.41421
    endloop
  endfacet
  facet normal 0 1 0
    outer loop
      vertex 4.3 1 7.3
      vertex 4.3 1 -7
      vertex 0 1 7.3
    endloop
  endfacet
  facet normal 0 1 0
    outer loop
      vertex 0 1 7.3
      vertex 4.3 1 -7
      vertex 0 1 -7
    endloop
  endfacet
  facet normal 0 0 -1
    outer loop
      vertex 4.3 13.3 7.3
      vertex 4.3 1 7.3
      vertex 0 13.3 7.3
    endloop
  endfacet
  facet normal 0 0 -1
    outer loop
      vertex 0 13.3 7.3
      vertex 4.3 1 7.3
      vertex 0 1 7.3
    endloop
  endfacet
  facet normal 0 -1 0
    outer loop
      vertex 4.3 13.3 -7
      vertex 4.3 13.3 7.3
      vertex 0 13.3 7.3
    endloop
  endfacet
  facet normal 0 -1 0
    outer loop
      vertex 0 13.3 -7
      vertex 4.3 13.3 -7
      vertex 0 13.3 7.3
    endloop
  endfacet
  facet normal 0 0 1
    outer loop
      vertex 4.3 1 -7
      vertex 4.3 13.3 -7
      vertex 0 13.3 -7
    endloop
  endfacet
  facet normal 0 0 1
    outer loop
      vertex 0 1 -7
      vertex 4.3 1 -7
      vertex 0 13.3 -7
    endloop
  endfacet
  facet normal 1 0 0
    outer loop
      vertex 25.5 -23.3345 7.77817
      vertex 25.5 -41.3657 -10.253
      vertex 25.5 -35.0018 -16.617
    endloop
  endfacet
  facet normal 1 0 0
    outer loop
      vertex 25.5 -16.9706 1.41421
      vertex 25.5 -23.3345 7.77817
      vertex 25.5 -35.0018 -16.617
    endloop
  endfacet
  facet normal 1 0 0
    outer loop
      vertex 2.75 -38.7141 -9.01561
      vertex 2.75 -24.572 5.12652
      vertex 2.75 -25.2791 5.83363
    endloop
  endfacet
  facet normal 1 0 0
    outer loop
      vertex 2.75 -39.4212 -8.3085
      vertex 2.75 -38.7141 -9.01561
      vertex 2.75 -25.2791 5.83363
    endloop
  endfacet
  facet normal 0 0.707107 0.707107
    outer loop
      vertex 22.75 -39.4212 -8.3085
      vertex 22.75 -38.7141 -9.01561
      vertex 2.75 -38.7141 -9.01561
    endloop
  endfacet
  facet normal 0 0.707107 0.707107
    outer loop
      vertex 2.75 -39.4212 -8.3085
      vertex 22.75 -39.4212 -8.3085
      vertex 2.75 -38.7141 -9.01561
    endloop
  endfacet
  facet normal -1 0 0
    outer loop
      vertex 22.75 -24.572 5.12652
      vertex 22.75 -38.7141 -9.01561
      vertex 22.75 -25.2791 5.83363
    endloop
  endfacet
  facet normal -1 0 0
    outer loop
      vertex 22.75 -25.2791 5.83363
      vertex 22.75 -38.7141 -9.01561
      vertex 22.75 -39.4212 -8.3085
    endloop
  endfacet
  facet normal 0 -0.707107 -0.707107
    outer loop
      vertex 22.75 -24.572 5.12652
      vertex 22.75 -25.2791 5.83363
      vertex 2.75 -24.572 5.12652
    endloop
  endfacet
  facet normal 0 -0.707107 -0.707107
    outer loop
      vertex 2.75 -24.572 5.12652
      vertex 22.75 -25.2791 5.83363
      vertex 2.75 -25.2791 5.83363
    endloop
  endfacet
  facet normal 1 0 0
    outer loop
      vertex 7.3 -1 8.21666
      vertex 7.3 -18.3531 2.91128
      vertex 7.3 -18.3027 2.74635
    endloop
  endfacet
  facet normal 1 0 0
    outer loop
      vertex 7.3 -17.2178 1.167
      vertex 7.3 -1 8.21666
      vertex 7.3 -16.9706 1.41421
    endloop
  endfacet
  facet normal 1 0 0
    outer loop
      vertex 7.3 -16.9706 1.41421
      vertex 7.3 -1 8.21666
      vertex 7.3 -18.3027 2.74635
    endloop
  endfacet
  facet normal 1 0 0
    outer loop
      vertex 7.3 -1 6.12527
      vertex 7.3 -1 8.21666
      vertex 7.3 -17.2178 1.167
    endloop
  endfacet
  facet normal 1 0 0
    outer loop
      vertex 7.3 1.5 -6.5
      vertex 7.3 -1 6.12527
      vertex 7.3 -1 -8
    endloop
  endfacet
  facet normal 1 0 0
    outer loop
      vertex 7.3 -0.446181 8.3
      vertex 7.3 -1 8.21666
      vertex 7.3 14.3 8.3
    endloop
  endfacet
  facet normal 1 0 0
    outer loop
      vertex 7.3 -0.727398 8.3
      vertex 7.3 -1 8.21666
      vertex 7.3 -0.446181 8.3
    endloop
  endfacet
  facet normal 1 0 0
    outer loop
      vertex 7.3 -1 8.3
      vertex 7.3 -1 8.21666
      vertex 7.3 -0.727398 8.3
    endloop
  endfacet
  facet normal 1 0 0
    outer loop
      vertex 7.3 -0.47022 8.37863
      vertex 7.3 -0.727398 8.3
      vertex 7.3 -0.446181 8.3
    endloop
  endfacet
  facet normal 1 0 0
    outer loop
      vertex 7.3 14.3 -8
      vertex 7.3 1.5 -6.5
      vertex 7.3 -1 -8
    endloop
  endfacet
  facet normal 1 0 0
    outer loop
      vertex 7.3 14.3 8.3
      vertex 7.3 -1 8.21666
      vertex 7.3 1.5 6.8
    endloop
  endfacet
  facet normal 1 0 0
    outer loop
      vertex 7.3 14.3 8.3
      vertex 7.3 12.8 6.8
      vertex 7.3 14.3 -8
    endloop
  endfacet
  facet normal 1 0 0
    outer loop
      vertex 7.3 14.3 8.3
      vertex 7.3 1.5 6.8
      vertex 7.3 12.8 6.8
    endloop
  endfacet
  facet normal 1 0 0
    outer loop
      vertex 7.3 12.8 6.8
      vertex 7.3 12.8 -6.5
      vertex 7.3 14.3 -8
    endloop
  endfacet
  facet normal 1 0 0
    outer loop
      vertex 7.3 12.8 -6.5
      vertex 7.3 1.5 -6.5
      vertex 7.3 14.3 -8
    endloop
  endfacet
  facet normal 1 0 0
    outer loop
      vertex 7.3 1.5 -6.5
      vertex 7.3 -1 8.21666
      vertex 7.3 -1 6.12527
    endloop
  endfacet
  facet normal 1 0 0
    outer loop
      vertex 7.3 1.5 -6.5
      vertex 7.3 1.5 6.8
      vertex 7.3 -1 8.21666
    endloop
  endfacet
  facet normal 1 0 0
    outer loop
      vertex 1 -28.1075 -2.65165
      vertex 1 -23.3345 6.36396
      vertex 1 -31.643 -6.18718
    endloop
  endfacet
  facet normal 1 0 0
    outer loop
      vertex 1 -34.2947 -15.9099
      vertex 1 -28.1075 -9.72272
      vertex 1 -31.643 -6.18718
    endloop
  endfacet
  facet normal 1 0 0
    outer loop
      vertex 1 -39.9515 -10.253
      vertex 1 -34.2947 -15.9099
      vertex 1 -31.643 -6.18718
    endloop
  endfacet
  facet normal 1 0 0
    outer loop
      vertex 1 -24.572 -6.18718
      vertex 1 -17.6777 0.707107
      vertex 1 -28.1075 -2.65165
    endloop
  endfacet
  facet normal 1 0 0
    outer loop
      vertex 1 -17.6777 0.707107
      vertex 1 -23.3345 6.36396
      vertex 1 -28.1075 -2.65165
    endloop
  endfacet
  facet normal 1 0 0
    outer loop
      vertex 1 -23.3345 6.36396
      vertex 1 -39.9515 -10.253
      vertex 1 -31.643 -6.18718
    endloop
  endfacet
  facet normal 0 -0.707107 -0.707107
    outer loop
      vertex 24.5 -17.6777 0.707107
      vertex 24.5 -23.3345 6.36396
      vertex 1 -17.6777 0.707107
    endloop
  endfacet
  facet normal 0 -0.707107 -0.707107
    outer loop
      vertex 1 -17.6777 0.707107
      vertex 24.5 -23.3345 6.36396
      vertex 1 -23.3345 6.36396
    endloop
  endfacet
  facet normal -1 0 0
    outer loop
      vertex 24.5 -17.6777 0.707107
      vertex 24.5 -34.2947 -15.9099
      vertex 24.5 -23.3345 6.36396
    endloop
  endfacet
  facet normal -1 0 0
    outer loop
      vertex 24.5 -23.3345 6.36396
      vertex 24.5 -34.2947 -15.9099
      vertex 24.5 -39.9515 -10.253
    endloop
  endfacet
  facet normal 0 0.707107 0.707107
    outer loop
      vertex 24.5 -39.9515 -10.253
      vertex 24.5 -34.2947 -15.9099
      vertex 1 -34.2947 -15.9099
    endloop
  endfacet
  facet normal 0 0.707107 0.707107
    outer loop
      vertex 1 -39.9515 -10.253
      vertex 24.5 -39.9515 -10.253
      vertex 1 -34.2947 -15.9099
    endloop
  endfacet
  facet normal -1 0 0
    outer loop
      vertex 4.3 1.5 -6.5
      vertex 4.3 13.3 -7
      vertex 4.3 1 -7
    endloop
  endfacet
  facet normal -1 0 0
    outer loop
      vertex 4.3 12.8 -6.5
      vertex 4.3 13.3 -7
      vertex 4.3 1.5 -6.5
    endloop
  endfacet
  facet normal -1 0 0
    outer loop
      vertex 4.3 1 7.3
      vertex 4.3 1.5 -6.5
      vertex 4.3 1 -7
    endloop
  endfacet
  facet normal -1 0 0
    outer loop
      vertex 4.3 12.8 6.8
      vertex 4.3 13.3 -7
      vertex 4.3 12.8 -6.5
    endloop
  endfacet
  facet normal -1 0 0
    outer loop
      vertex 4.3 13.3 7.3
      vertex 4.3 13.3 -7
      vertex 4.3 12.8 6.8
    endloop
  endfacet
  facet normal -1 0 0
    outer loop
      vertex 4.3 13.3 7.3
      vertex 4.3 12.8 6.8
      vertex 4.3 1 7.3
    endloop
  endfacet
  facet normal -1 0 0
    outer loop
      vertex 4.3 12.8 6.8
      vertex 4.3 1.5 6.8
      vertex 4.3 1 7.3
    endloop
  endfacet
  facet normal -1 0 0
    outer loop
      vertex 4.3 1.5 -6.5
      vertex 4.3 1 7.3
      vertex 4.3 1.5 6.8
    endloop
  endfacet
  facet normal 0 0.707107 -0.707107
    outer loop
      vertex 22.75 -24.572 5.12652
      vertex 2.75 -24.572 5.12652
      vertex 1 -23.3345 6.36396
    endloop
  endfacet
  facet normal 0 0.707107 -0.707107
    outer loop
      vertex 2.75 -38.7141 -9.01561
      vertex 24.5 -39.9515 -10.253
      vertex 1 -39.9515 -10.253
    endloop
  endfacet
  facet normal 0 0.707107 -0.707107
    outer loop
      vertex 22.75 -38.7141 -9.01561
      vertex 24.5 -39.9515 -10.253
      vertex 2.75 -38.7141 -9.01561
    endloop
  endfacet
  facet normal 0 0.707107 -0.707107
    outer loop
      vertex 1 -23.3345 6.36396
      vertex 2.75 -38.7141 -9.01561
      vertex 1 -39.9515 -10.253
    endloop
  endfacet
  facet normal 0 0.707107 -0.707107
    outer loop
      vertex 24.5 -23.3345 6.36396
      vertex 24.5 -39.9515 -10.253
      vertex 22.75 -38.7141 -9.01561
    endloop
  endfacet
  facet normal 0 0.707107 -0.707107
    outer loop
      vertex 24.5 -23.3345 6.36396
      vertex 22.75 -38.7141 -9.01561
      vertex 22.75 -24.572 5.12652
    endloop
  endfacet
  facet normal 0 0.707107 -0.707107
    outer loop
      vertex 24.5 -23.3345 6.36396
      vertex 22.75 -24.572 5.12652
      vertex 1 -23.3345 6.36396
    endloop
  endfacet
  facet normal 0 0.707107 -0.707107
    outer loop
      vertex 1 -23.3345 6.36396
      vertex 2.75 -24.572 5.12652
      vertex 2.75 -38.7141 -9.01561
    endloop
  endfacet
  facet normal 0 1 0
    outer loop
      vertex 7.3 1.5 6.8
      vertex 7.3 1.5 -6.5
      vertex 4.3 1.5 6.8
    endloop
  endfacet
  facet normal 0 1 0
    outer loop
      vertex 4.3 1.5 6.8
      vertex 7.3 1.5 -6.5
      vertex 4.3 1.5 -6.5
    endloop
  endfacet
  facet normal 0 0 1
    outer loop
      vertex 7.3 1.5 -6.5
      vertex 7.3 12.8 -6.5
      vertex 4.3 12.8 -6.5
    endloop
  endfacet
  facet normal 0 0 1
    outer loop
      vertex 4.3 1.5 -6.5
      vertex 7.3 1.5 -6.5
      vertex 4.3 12.8 -6.5
    endloop
  endfacet
  facet normal 0 -1 0
    outer loop
      vertex 7.3 12.8 -6.5
      vertex 7.3 12.8 6.8
      vertex 4.3 12.8 6.8
    endloop
  endfacet
  facet normal 0 -1 0
    outer loop
      vertex 4.3 12.8 -6.5
      vertex 7.3 12.8 -6.5
      vertex 4.3 12.8 6.8
    endloop
  endfacet
  facet normal 0 0 -1
    outer loop
      vertex 7.3 12.8 6.8
      vertex 7.3 1.5 6.8
      vertex 4.3 12.8 6.8
    endloop
  endfacet
  facet normal 0 0 -1
    outer loop
      vertex 4.3 12.8 6.8
      vertex 7.3 1.5 6.8
      vertex 4.3 1.5 6.8
    endloop
  endfacet
endsolid OpenSCAD_Model
